{
  "accessors": [
    {
      "bufferView": 2,
      "componentType": 5126,
      "count": 44,
      "max": [
        0.5722222328186035,
        0.8035375475883484,
        0.43416041135787964
      ],
      "min": [
        -0.5722222328186035,
        -1.1070753335952759,
        -0.5000003576278687
      ],
      "type": "VEC3"
    },
    {
      "bufferView": 2,
      "byteOffset": 528,
      "componentType": 5126,
      "count": 44,
      "max": [
        0.9997929334640503,
        0.9602465629577637,
        0.43705302476882935
      ],
      "min": [
        -0.9997929334640503,
        -0.9074284434318542,
        -0.9085077047348022
      ],
      "type": "VEC3"
    },
    {
      "bufferView": 1,
      "componentType": 5126,
      "count": 44,
      "max": [
        0.30481454730033875,
        0.5253218412399292
      ],
      "min": [
        0.2887723445892334,
        0.5120906829833984
      ],
      "type": "VEC2"
    },
    {
      "bufferView": 0,
      "componentType": 5125,
      "count": 150,
      "type": "SCALAR"
    },
    {
      "bufferView": 2,
      "byteOffset": 1056,
      "componentType": 5126,
      "count": 86,
      "max": [
        0.5722222328186035,
        0.8035375475883484,
        0.5000002980232239
      ],
      "min": [
        -0.5722222328186035,
        -1.1070752143859863,
        -3.840941209676692e-18
      ],
      "type": "VEC3"
    },
    {
      "bufferView": 2,
      "byteOffset": 2088,
      "componentType": 5126,
      "count": 86,
      "max": [
        0.9997929334640503,
        0.9602465629577637,
        0.9968490600585938
      ],
      "min": [
        -0.9997929334640503,
        -0.9074284434318542,
        -0.012522980570793152
      ],
      "type": "VEC3"
    },
    {
      "bufferView": 1,
      "byteOffset": 352,
      "componentType": 5126,
      "count": 86,
      "max": [
        0.5394898653030396,
        0.9069904685020447
      ],
      "min": [
        0.13352751731872559,
        0.005785435438156128
      ],
      "type": "VEC2"
    },
    {
      "bufferView": 0,
      "byteOffset": 600,
      "componentType": 5125,
      "count": 318,
      "type": "SCALAR"
    },
    {
      "bufferView": 2,
      "byteOffset": 3120,
      "componentType": 5126,
      "count": 64,
      "max": [
        0.47299936413764954,
        0.6447356939315796,
        0.47991323471069336
      ],
      "min": [
        -0.4780506193637848,
        -0.49999988079071045,
        -0.4342077076435089
      ],
      "type": "VEC3"
    },
    {
      "bufferView": 2,
      "byteOffset": 3888,
      "componentType": 5126,
      "count": 64,
      "max": [
        0.9893311858177185,
        0.9951924085617065,
        0.9953751564025879
      ],
      "min": [
        -0.9929208159446716,
        -0.9969200491905212,
        -0.6157580018043518
      ],
      "type": "VEC3"
    },
    {
      "bufferView": 1,
      "byteOffset": 1040,
      "componentType": 5126,
      "count": 64,
      "max": [
        0.5531126260757446,
        0.9018004536628723
      ],
      "min": [
        0.12000668048858643,
        0.008427143096923828
      ],
      "type": "VEC2"
    },
    {
      "bufferView": 0,
      "byteOffset": 1872,
      "componentType": 5125,
      "count": 270,
      "type": "SCALAR"
    },
    {
      "bufferView": 2,
      "byteOffset": 4656,
      "componentType": 5126,
      "count": 16,
      "max": [
        0.44457128643989563,
        0.6039794683456421,
        -0.2774929106235504
      ],
      "min": [
        -0.4498639702796936,
        -0.4560028314590454,
        -0.48003607988357544
      ],
      "type": "VEC3"
    },
    {
      "bufferView": 2,
      "byteOffset": 4848,
      "componentType": 5126,
      "count": 16,
      "max": [
        0.8672583103179932,
        0.7965912222862244,
        -0.36548399925231934
      ],
      "min": [
        -0.8705735802650452,
        -0.7897617220878601,
        -0.9951310157775879
      ],
      "type": "VEC3"
    },
    {
      "bufferView": 1,
      "byteOffset": 1552,
      "componentType": 5126,
      "count": 16,
      "max": [
        0.9611895084381104,
        0.8103106021881104
      ],
      "min": [
        -5.960464477539063e-08,
        0.2076878547668457
      ],
      "type": "VEC2"
    },
    {
      "bufferView": 0,
      "byteOffset": 2952,
      "componentType": 5125,
      "count": 54,
      "type": "SCALAR"
    },
    {
      "bufferView": 2,
      "byteOffset": 5040,
      "componentType": 5126,
      "count": 38,
      "max": [
        0.49248525500297546,
        0.464768648147583,
        0.5
      ],
      "min": [
        -0.4960979223251343,
        -0.5,
        -0.5
      ],
      "type": "VEC3"
    },
    {
      "bufferView": 2,
      "byteOffset": 5496,
      "componentType": 5126,
      "count": 38,
      "max": [
        0.9927651882171631,
        0.9695937633514404,
        0.9431557655334473
      ],
      "min": [
        -0.9915413856506348,
        -0.9682457447052002,
        -0.9415603876113892
      ],
      "type": "VEC3"
    },
    {
      "bufferView": 1,
      "byteOffset": 1680,
      "componentType": 5126,
      "count": 38,
      "max": [
        0.1773870438337326,
        0.24626955389976501
      ],
      "min": [
        0.05051542818546295,
        0.05726158618927002
      ],
      "type": "VEC2"
    },
    {
      "bufferView": 0,
      "byteOffset": 3168,
      "componentType": 5125,
      "count": 132,
      "type": "SCALAR"
    },
    {
      "bufferView": 2,
      "byteOffset": 5952,
      "componentType": 5126,
      "count": 89,
      "max": [
        0.4809143543243408,
        0.5779647827148438,
        0.5213181376457214
      ],
      "min": [
        -2.3719499111175537,
        -3.353940486907959,
        -0.5076108574867249
      ],
      "type": "VEC3"
    },
    {
      "bufferView": 2,
      "byteOffset": 7020,
      "componentType": 5126,
      "count": 89,
      "max": [
        0.9943245053291321,
        0.9946058392524719,
        0.9958682060241699
      ],
      "min": [
        -0.9659936428070068,
        -0.9945715069770813,
        -0.9990469813346863
      ],
      "type": "VEC3"
    },
    {
      "bufferView": 1,
      "byteOffset": 1984,
      "componentType": 5126,
      "count": 89,
      "max": [
        0.4737671911716461,
        0.15846797823905945
      ],
      "min": [
        0.43200400471687317,
        0.1022915169596672
      ],
      "type": "VEC2"
    },
    {
      "bufferView": 0,
      "byteOffset": 3696,
      "componentType": 5125,
      "count": 420,
      "type": "SCALAR"
    },
    {
      "bufferView": 2,
      "byteOffset": 8088,
      "componentType": 5126,
      "count": 89,
      "max": [
        7.785045623779297,
        2.950718402862549,
        0.06485378742218018
      ],
      "min": [
        4.213369846343994,
        0.8407343626022339,
        -1.5024025440216064
      ],
      "type": "VEC3"
    },
    {
      "bufferView": 2,
      "byteOffset": 9156,
      "componentType": 5126,
      "count": 89,
      "max": [
        0.9939557313919067,
        0.9702666401863098,
        0.9927003383636475
      ],
      "min": [
        -0.988280177116394,
        -0.9703561067581177,
        -0.9966138601303101
      ],
      "type": "VEC3"
    },
    {
      "bufferView": 1,
      "byteOffset": 2696,
      "componentType": 5126,
      "count": 89,
      "max": [
        0.47393518686294556,
        0.1586596667766571
      ],
      "min": [
        0.43200403451919556,
        0.10229150950908661
      ],
      "type": "VEC2"
    },
    {
      "bufferView": 0,
      "byteOffset": 5376,
      "componentType": 5125,
      "count": 420,
      "type": "SCALAR"
    },
    {
      "bufferView": 2,
      "byteOffset": 10224,
      "componentType": 5126,
      "count": 78,
      "max": [
        6.201359748840332,
        0.5186307430267334,
        0.5
      ],
      "min": [
        -1.163703203201294,
        -5.362130165100098,
        -0.5
      ],
      "type": "VEC3"
    },
    {
      "bufferView": 2,
      "byteOffset": 11160,
      "componentType": 5126,
      "count": 78,
      "max": [
        0.9724253416061401,
        0.7941563725471497,
        0.9149242043495178
      ],
      "min": [
        -0.9724253416061401,
        -0.6739023923873901,
        -0.914924144744873
      ],
      "type": "VEC3"
    },
    {
      "bufferView": 1,
      "byteOffset": 3408,
      "componentType": 5126,
      "count": 78,
      "max": [
        0.4751487374305725,
        0.15981781482696533
      ],
      "min": [
        0.43200400471687317,
        0.1022915169596672
      ],
      "type": "VEC2"
    },
    {
      "bufferView": 0,
      "byteOffset": 7056,
      "componentType": 5125,
      "count": 312,
      "type": "SCALAR"
    },
    {
      "bufferView": 2,
      "byteOffset": 12096,
      "componentType": 5126,
      "count": 114,
      "max": [
        3.189424991607666,
        7.117323875427246,
        0.49999988079071045
      ],
      "min": [
        -5.0374321937561035,
        -0.5076327323913574,
        -0.49999988079071045
      ],
      "type": "VEC3"
    },
    {
      "bufferView": 2,
      "byteOffset": 13464,
      "componentType": 5126,
      "count": 114,
      "max": [
        0.9684022665023804,
        0.9936520457267761,
        0.9957941770553589
      ],
      "min": [
        -0.9935990571975708,
        -0.9860528707504272,
        -0.9958221912384033
      ],
      "type": "VEC3"
    },
    {
      "bufferView": 1,
      "byteOffset": 4032,
      "componentType": 5126,
      "count": 114,
      "max": [
        0.4751487374305725,
        0.15854133665561676
      ],
      "min": [
        0.43328049778938293,
        0.1022915169596672
      ],
      "type": "VEC2"
    },
    {
      "bufferView": 0,
      "byteOffset": 8304,
      "componentType": 5125,
      "count": 456,
      "type": "SCALAR"
    },
    {
      "bufferView": 2,
      "byteOffset": 14832,
      "componentType": 5126,
      "count": 384,
      "max": [
        2.89542293548584,
        0.3089379668235779,
        0.5000000596046448
      ],
      "min": [
        -24.419641494750977,
        -0.5694658756256104,
        -0.5000000596046448
      ],
      "type": "VEC3"
    },
    {
      "bufferView": 2,
      "byteOffset": 19440,
      "componentType": 5126,
      "count": 384,
      "max": [
        0.8724227547645569,
        0.9999945759773254,
        0.992030680179596
      ],
      "min": [
        -0.997545063495636,
        -0.999990701675415,
        -0.9922705888748169
      ],
      "type": "VEC3"
    },
    {
      "bufferView": 1,
      "byteOffset": 4944,
      "componentType": 5126,
      "count": 384,
      "max": [
        0.47390294075012207,
        0.1587827354669571
      ],
      "min": [
        0.43200403451919556,
        0.10229150950908661
      ],
      "type": "VEC2"
    },
    {
      "bufferView": 0,
      "byteOffset": 10128,
      "componentType": 5125,
      "count": 1608,
      "type": "SCALAR"
    }
  ],
  "asset": {
    "extras": {
      "author": "kktchakan (https://sketchfab.com/kktchakan)",
      "license": "CC-BY-4.0 (http://creativecommons.org/licenses/by/4.0/)",
      "source": "https://sketchfab.com/3d-models/cockroach-94f27a10cd3b4318bdeabc38f384c41c",
      "title": "cockroach"
    },
    "generator": "Sketchfab-13.96.0",
    "version": "2.0"
  },
  "bufferViews": [
    {
      "buffer": 0,
      "byteLength": 16560,
      "name": "floatBufferViews",
      "target": 34963
    },
    {
      "buffer": 0,
      "byteLength": 8016,
      "byteOffset": 16560,
      "byteStride": 8,
      "name": "floatBufferViews",
      "target": 34962
    },
    {
      "buffer": 0,
      "byteLength": 24048,
      "byteOffset": 24576,
      "byteStride": 12,
      "name": "floatBufferViews",
      "target": 34962
    }
  ],
  "buffers": [
    {
      "byteLength": 48624,
      "uri": "scene.bin"
    }
  ],
  "images": [
    {
      "uri": "textures/lambert2_baseColor.jpeg"
    }
  ],
  "materials": [
    {
      "doubleSided": true,
      "name": "lambert1",
      "pbrMetallicRoughness": {
        "baseColorFactor": [
          0.5,
          0.5,
          0.5,
          1.0
        ],
        "metallicFactor": 0.0,
        "roughnessFactor": 0.6
      }
    },
    {
      "doubleSided": true,
      "name": "lambert2",
      "pbrMetallicRoughness": {
        "baseColorTexture": {
          "index": 0
        },
        "metallicFactor": 0.0,
        "roughnessFactor": 0.6
      }
    }
  ],
  "meshes": [
    {
      "name": "pCube1_lambert1_0",
      "primitives": [
        {
          "attributes": {
            "NORMAL": 1,
            "POSITION": 0,
            "TEXCOORD_0": 2
          },
          "indices": 3,
          "material": 0,
          "mode": 4
        }
      ]
    },
    {
      "name": "pCube1_lambert2_0",
      "primitives": [
        {
          "attributes": {
            "NORMAL": 5,
            "POSITION": 4,
            "TEXCOORD_0": 6
          },
          "indices": 7,
          "material": 1,
          "mode": 4
        }
      ]
    },
    {
      "name": "pCube2_lambert2_0",
      "primitives": [
        {
          "attributes": {
            "NORMAL": 9,
            "POSITION": 8,
            "TEXCOORD_0": 10
          },
          "indices": 11,
          "material": 1,
          "mode": 4
        }
      ]
    },
    {
      "name": "pCube2_lambert1_0",
      "primitives": [
        {
          "attributes": {
            "NORMAL": 13,
            "POSITION": 12,
            "TEXCOORD_0": 14
          },
          "indices": 15,
          "material": 0,
          "mode": 4
        }
      ]
    },
    {
      "name": "pCube3_lambert2_0",
      "primitives": [
        {
          "attributes": {
            "NORMAL": 17,
            "POSITION": 16,
            "TEXCOORD_0": 18
          },
          "indices": 19,
          "material": 1,
          "mode": 4
        }
      ]
    },
    {
      "name": "polySurface1_lambert2_0",
      "primitives": [
        {
          "attributes": {
            "NORMAL": 21,
            "POSITION": 20,
            "TEXCOORD_0": 22
          },
          "indices": 23,
          "material": 1,
          "mode": 4
        }
      ]
    },
    {
      "name": "polySurface2_lambert2_0",
      "primitives": [
        {
          "attributes": {
            "NORMAL": 25,
            "POSITION": 24,
            "TEXCOORD_0": 26
          },
          "indices": 27,
          "material": 1,
          "mode": 4
        }
      ]
    },
    {
      "name": "pCube5_lambert2_0",
      "primitives": [
        {
          "attributes": {
            "NORMAL": 29,
            "POSITION": 28,
            "TEXCOORD_0": 30
          },
          "indices": 31,
          "material": 1,
          "mode": 4
        }
      ]
    },
    {
      "name": "pCube6_lambert2_0",
      "primitives": [
        {
          "attributes": {
            "NORMAL": 33,
            "POSITION": 32,
            "TEXCOORD_0": 34
          },
          "indices": 35,
          "material": 1,
          "mode": 4
        }
      ]
    },
    {
      "name": "pCube7_lambert2_0",
      "primitives": [
        {
          "attributes": {
            "NORMAL": 37,
            "POSITION": 36,
            "TEXCOORD_0": 38
          },
          "indices": 39,
          "material": 1,
          "mode": 4
        }
      ]
    }
  ],
  "nodes": [
    {
      "children": [
        1
      ],
      "matrix": [
        1.0,
        0.0,
        0.0,
        0.0,
        0.0,
        2.220446049250313e-16,
        -1.0,
        0.0,
        0.0,
        1.0,
        2.220446049250313e-16,
        0.0,
        0.0,
        0.0,
        0.0,
        1.0
      ],
      "name": "Sketchfab_model"
    },
    {
      "children": [
        2
      ],
      "matrix": [
        0.009999999776482582,
        0.0,
        0.0,
        0.0,
        0.0,
        0.0,
        0.009999999776482582,
        0.0,
        0.0,
        -0.009999999776482582,
        0.0,
        0.0,
        0.0,
        0.0,
        0.0,
        1.0
      ],
      "name": "e970a63ec8db4ff09a8429d72e070e91.fbx"
    },
    {
      "children": [
        3,
        6,
        9,
        11,
        16,
        18,
        20,
        22
      ],
      "name": "RootNode"
    },
    {
      "children": [
        4,
        5
      ],
      "matrix": [
        1.023298978805542,
        0.0,
        0.0,
        0.0,
        0.0,
        1.023298978805542,
        0.0,
        0.0,
        0.0,
        0.0,
        0.4861546754837036,
        0.0,
        0.0,
        0.0,
        0.0,
        1.0
      ],
      "name": "pCube1"
    },
    {
      "mesh": 0,
      "name": "pCube1_lambert1_0"
    },
    {
      "mesh": 1,
      "name": "pCube1_lambert2_0"
    },
    {
      "children": [
        7,
        8
      ],
      "matrix": [
        0.9085898995399475,
        0.0,
        0.0,
        0.0,
        0.0,
        0.5883987545967102,
        0.0,
        0.0,
        0.0,
        0.0,
        0.4559729993343353,
        0.0,
        0.0,
        1.0467829704284668,
        0.04187648743391037,
        1.0
      ],
      "name": "pCube2"
    },
    {
      "mesh": 2,
      "name": "pCube2_lambert2_0"
    },
    {
      "mesh": 3,
      "name": "pCube2_lambert1_0"
    },
    {
      "children": [
        10
      ],
      "matrix": [
        0.761967658996582,
        0.0,
        0.0,
        0.0,
        0.0,
        0.4130198061466217,
        0.0,
        0.0,
        0.0,
        0.0,
        0.28520646691322327,
        0.0,
        -0.006928463466465473,
        1.3427178859710693,
        0.0,
        1.0
      ],
      "name": "pCube3"
    },
    {
      "mesh": 4,
      "name": "pCube3_lambert2_0"
    },
    {
      "children": [
        12,
        14
      ],
      "matrix": [
        0.23618283028074044,
        -0.06561254972412835,
        0.022651773758453994,
        0.0,
        0.04453252551938906,
        0.15747685301169378,
        -0.008183026639157643,
        0.0,
        -0.013008313054691918,
        0.012627151237817926,
        0.17220902100192506,
        0.0,
        -0.6048910617828369,
        0.5512803196907043,
        0.0,
        1.0
      ],
      "name": "pCube4"
    },
    {
      "children": [
        13
      ],
      "matrix": [
        1.0,
        8.933825901280558e-17,
        -2.775557561562892e-17,
        0.0,
        -8.933825901280558e-17,
        1.0,
        0.0,
        0.0,
        2.775557561562892e-17,
        2.4796348033985672e-33,
        1.0,
        0.0,
        0.0,
        0.0,
        0.0,
        1.0
      ],
      "name": "polySurface1"
    },
    {
      "mesh": 5,
      "name": "polySurface1_lambert2_0"
    },
    {
      "children": [
        15
      ],
      "matrix": [
        0.9411552071204883,
        0.337412162885836,
        0.01949124025537782,
        0.0,
        -0.3377397025215947,
        0.9410856674282259,
        0.017019397809425046,
        0.0,
        -0.012600375018843573,
        -0.02260086055602365,
        0.999665159766765,
        0.0,
        0.6378735303878784,
        -1.2683571577072144,
        0.0018098108703270555,
        1.0
      ],
      "name": "polySurface2"
    },
    {
      "mesh": 6,
      "name": "polySurface2_lambert2_0"
    },
    {
      "children": [
        17
      ],
      "matrix": [
        0.2647300660610199,
        0.0,
        0.0,
        0.0,
        0.0,
        0.2647300660610199,
        0.0,
        0.0,
        0.0,
        0.0,
        0.2647300660610199,
        0.0,
        -0.6668094992637634,
        0.07312167435884476,
        0.0,
        1.0
      ],
      "name": "pCube5"
    },
    {
      "mesh": 7,
      "name": "pCube5_lambert2_0"
    },
    {
      "children": [
        19
      ],
      "matrix": [
        0.118784220710482,
        0.0905373626148437,
        0.0,
        0.0,
        -0.0905373626148437,
        0.118784220710482,
        0.0,
        0.0,
        0.0,
        0.0,
        0.14935429394245148,
        0.0,
        0.43353986740112305,
        1.0510015487670898,
        0.0,
        1.0
      ],
      "name": "pCube6"
    },
    {
      "mesh": 8,
      "name": "pCube6_lambert2_0"
    },
    {
      "children": [
        21
      ],
      "matrix": [
        0.06870994254363609,
        -0.05787290299966251,
        0.0,
        0.0,
        1.6127905967150906,
        1.914795068010614,
        0.0,
        0.0,
        0.0,
        0.0,
        0.08983501046895981,
        0.0,
        0.9089410305023193,
        2.2922956943511963,
        0.0,
        1.0
      ],
      "name": "pCube7"
    },
    {
      "mesh": 9,
      "name": "pCube7_lambert2_0"
    },
    {
      "children": [
        23
      ],
      "matrix": [
        0.9964392106927137,
        0.05046779673507575,
        -0.06754184544997924,
        0.0,
        0.08428040989140492,
        -0.6189035665970231,
        0.7809322555523116,
        0.0,
        -0.002389958706458778,
        -0.783843974746372,
        -0.6209532279899914,
        0.0,
        0.0,
        -0.12582242488861084,
        4.210930824279785,
        1.0
      ],
      "name": "directionalLight1"
    },
    {
      "children": [
        24
      ],
      "matrix": [
        1.0,
        0.0,
        0.0,
        0.0,
        0.0,
        2.220446049250313e-16,
        1.0,
        0.0,
        0.0,
        -1.0,
        2.220446049250313e-16,
        0.0,
        0.0,
        0.0,
        0.0,
        1.0
      ],
      "name": "Object_23"
    },
    {
      "name": "Object_24"
    }
  ],
  "samplers": [
    {
      "magFilter": 9729,
      "minFilter": 9987,
      "wrapS": 10497,
      "wrapT": 10497
    }
  ],
  "scene": 0,
  "scenes": [
    {
      "name": "Sketchfab_Scene",
      "nodes": [
        0
      ]
    }
  ],
  "textures": [
    {
      "sampler": 0,
      "source": 0
    }
  ]
}
